HIERARCHY
ROOT joint_Root
{
	OFFSET 0.0 0.0 0.0
	CHANNELS 6 Xposition Yposition Zposition Zrotation Xrotation Yrotation 
	JOINT Hips
	{
		OFFSET -17.1583 93.1646 452.98
		CHANNELS 6 Xposition Yposition Zposition Zrotation Xrotation Yrotation 
		JOINT Spine
		{
			OFFSET 15.7357 0.0 0.0
			CHANNELS 6 Xposition Yposition Zposition Zrotation Xrotation Yrotation 
			JOINT Chest
			{
				OFFSET 8.98455 -0.406207 0.0
				CHANNELS 6 Xposition Yposition Zposition Zrotation Xrotation Yrotation 
				JOINT Neck
				{
					OFFSET 16.3773 0.0 0.0
					CHANNELS 6 Xposition Yposition Zposition Zrotation Xrotation Yrotation 
					JOINT Head
					{
						OFFSET 6.45672 0.0 0.0
						CHANNELS 6 Xposition Yposition Zposition Zrotation Xrotation Yrotation 
						End Site
						{
							OFFSET 0.0 0.0 0.0
						}
					}
				}
				JOINT Shoulder_L
				{
					OFFSET 12.9942 -0.242716 4.98039
					CHANNELS 6 Xposition Yposition Zposition Zrotation Xrotation Yrotation 
					JOINT UpperArm_L
					{
						OFFSET 5.34809 0.0 0.0
						CHANNELS 6 Xposition Yposition Zposition Zrotation Xrotation Yrotation 
						JOINT LowerArm_L
						{
							OFFSET 24.3286 1.87007e-05 0.0
							CHANNELS 6 Xposition Yposition Zposition Zrotation Xrotation Yrotation 
							JOINT Hand_L
							{
								OFFSET 22.2916 0.0 0.0
								CHANNELS 6 Xposition Yposition Zposition Zrotation Xrotation Yrotation 
								End Site
								{
									OFFSET 0.0 0.0 0.0
								}
							}
						}
					}
				}
				JOINT Shoulder_R
				{
					OFFSET 12.9945 -0.242716 -4.98039
					CHANNELS 6 Xposition Yposition Zposition Zrotation Xrotation Yrotation 
					JOINT UpperArm_R
					{
						OFFSET -5.34813 0.0 0.0
						CHANNELS 6 Xposition Yposition Zposition Zrotation Xrotation Yrotation 
						JOINT LowerArm_R
						{
							OFFSET -24.3289 0.000322201 0.0
							CHANNELS 6 Xposition Yposition Zposition Zrotation Xrotation Yrotation 
							JOINT Hand_R
							{
								OFFSET -22.2915 -0.000108084 0.0
								CHANNELS 6 Xposition Yposition Zposition Zrotation Xrotation Yrotation 
								End Site
								{
									OFFSET 0.0 0.0 0.0
								}
							}
						}
					}
				}
			}
		}
		JOINT UpperLeg_L
		{
			OFFSET -2.19248 -6.46944 0.0
			CHANNELS 6 Xposition Yposition Zposition Zrotation Xrotation Yrotation 
			JOINT LowerLeg_L
			{
				OFFSET 39.0811 0.0 -1.23785e-05
				CHANNELS 6 Xposition Yposition Zposition Zrotation Xrotation Yrotation 
				JOINT Foot_L
				{
					OFFSET 40.9854 0.0 -1.26872e-05
					CHANNELS 6 Xposition Yposition Zposition Zrotation Xrotation Yrotation 
					JOINT Toes_L
					{
						OFFSET 11.7543 0.0 0.0
						CHANNELS 6 Xposition Yposition Zposition Zrotation Xrotation Yrotation 
						End Site
						{
							OFFSET 0.0 0.0 0.0
						}
					}
				}
			}
		}
		JOINT UpperLeg_R
		{
			OFFSET -2.19251 6.46944 0.0
			CHANNELS 6 Xposition Yposition Zposition Zrotation Xrotation Yrotation 
			JOINT LowerLeg_R
			{
				OFFSET -39.0811 -0.00228153 -0.0401928
				CHANNELS 6 Xposition Yposition Zposition Zrotation Xrotation Yrotation 
				JOINT Foot_R
				{
					OFFSET -40.9854 0.0 0.0
					CHANNELS 6 Xposition Yposition Zposition Zrotation Xrotation Yrotation 
					JOINT Toes_R
					{
						OFFSET -11.7543 0.0 0.0
						CHANNELS 6 Xposition Yposition Zposition Zrotation Xrotation Yrotation 
						End Site
						{
							OFFSET 0.0 0.0 0.0
						}
					}
				}
			}
		}
	}
}
MOTION
Frames:	8
Frame Time:	0.0333333
0.000000 0.000000 0.000000 0.000000 0.000000 -0.000000 -5.514070 91.546600 -0.565784 83.134800 -2.330130 6.116880 15.735700 0.000005 -0.000001 59.560800 86.795100 -57.596400 8.984550 -0.406207 -0.000000 -2.179570 -3.416820 3.864240 16.377300 -0.000001 -0.000001 11.390500 0.349780 6.134890 6.456720 -0.000001 -0.000000 3.808610 1.171640 13.243300 12.994200 -0.242716 4.980390 -91.831000 5.255810 -70.761500 5.348090 -0.000007 -0.000001 -75.738500 23.287100 3.460080 24.328600 0.000019 0.000005 11.907100 29.220000 -23.361800 22.291600 -0.000001 0.000005 -3.382560 5.014940 6.999890 12.994500 -0.242716 -4.980390 88.039100 5.261490 -69.526500 -5.348130 -0.000001 -0.000004 -72.984600 -5.832760 -12.838500 -24.328900 0.000322 -0.000009 17.431100 -21.367800 -139.247000 -22.291500 -0.000108 -0.000004 54.066400 5.661830 -16.273200 -2.192480 -6.469440 -0.000000 -169.765000 5.286610 -1.722320 39.081100 -0.000007 -0.000012 0.435730 -0.765596 29.647000 40.985400 -0.000006 -0.000013 -1.295940 6.289330 -78.037400 11.754300 -0.000000 0.000003 0.001067 0.147161 -10.608800 -2.192510 6.469440 -0.000001 -168.329000 6.658390 -174.631000 -39.081100 -0.002282 -0.040193 0.138693 -0.460844 16.369500 -40.985400 0.000008 0.000006 6.993940 2.698120 -71.814800 -11.754300 -0.000006 -0.000006 -0.008493 0.259680 -6.026220
0.000000 0.000000 0.000000 0.000000 0.000000 -0.000000 -5.511570 91.567900 -0.596224 83.170200 -2.185120 6.029130 15.735700 0.000005 -0.000001 60.048100 86.798800 -58.140900 8.984550 -0.406207 -0.000000 -2.161360 -3.360760 3.751410 16.377300 -0.000001 -0.000001 11.346900 0.265914 6.123350 6.456720 -0.000001 -0.000000 3.780180 1.019950 13.272500 12.994200 -0.242716 4.980390 -91.833200 5.264060 -70.768100 5.348090 -0.000007 -0.000001 -75.623600 23.031600 3.576430 24.328600 0.000019 0.000005 11.962700 29.393500 -23.349400 22.291600 -0.000001 0.000005 -3.258770 5.015300 6.992290 12.994500 -0.242716 -4.980390 88.039000 5.264140 -69.534400 -5.348130 -0.000001 -0.000004 -72.911700 -6.005740 -12.716300 -24.328900 0.000322 -0.000009 17.305800 -21.218100 -139.274000 -22.291500 -0.000108 -0.000004 54.033400 5.660490 -16.116700 -2.192480 -6.469440 -0.000000 -169.778000 5.296500 -1.824940 39.081100 -0.000007 -0.000012 0.431080 -0.760496 29.547400 40.985400 -0.000006 -0.000013 -1.282050 6.379020 -77.959700 11.754300 -0.000000 0.000003 0.001104 0.146335 -10.642300 -2.192510 6.469440 -0.000001 -168.372000 6.673670 -174.737000 -39.081100 -0.002282 -0.040193 0.134797 -0.448927 16.322900 -40.985400 0.000008 0.000006 6.830720 2.698000 -71.746600 -11.754300 -0.000006 -0.000006 -0.008289 0.258044 -6.093030
0.000000 0.000000 0.000000 0.000000 0.000000 -0.000000 -5.493370 91.576400 -0.625639 83.205100 -2.039520 5.963880 15.735700 0.000005 -0.000001 60.480700 86.791200 -58.627400 8.984550 -0.406207 -0.000000 -2.126490 -3.321050 3.645190 16.377300 -0.000001 -0.000001 11.365900 0.193800 6.082900 6.456720 -0.000001 -0.000000 3.721030 0.814013 13.280000 12.994200 -0.242716 4.980390 -91.841200 5.261740 -70.682900 5.348090 -0.000007 -0.000001 -75.465700 22.890700 3.609460 24.328600 0.000019 0.000005 11.909900 29.271900 -23.333200 22.291600 -0.000001 0.000005 -3.282270 5.014910 7.000830 12.994500 -0.242716 -4.980390 88.028200 5.295190 -69.542100 -5.348130 -0.000001 -0.000004 -72.809800 -6.245730 -12.625600 -24.328900 0.000322 -0.000009 17.124100 -21.004200 -139.318000 -22.291500 -0.000108 -0.000004 53.869300 5.661120 -16.195400 -2.192480 -6.469440 -0.000000 -169.814000 5.347750 -1.944730 39.081100 -0.000007 -0.000012 0.430316 -0.760016 29.519400 40.985400 -0.000006 -0.000013 -1.246640 6.469990 -77.864900 11.754300 -0.000000 0.000003 0.001010 0.148420 -10.557700 -2.192510 6.469440 -0.000001 -168.427000 6.867480 -174.836000 -39.081100 -0.002282 -0.040193 0.135317 -0.451249 16.304200 -40.985400 0.000008 0.000006 6.838560 2.713380 -71.726100 -11.754300 -0.000006 -0.000006 -0.008372 0.258708 -6.065930
0.000000 0.000000 0.000000 0.000000 0.000000 -0.000000 -5.489720 91.594800 -0.652445 83.209700 -1.856960 5.937970 15.735700 0.000005 -0.000001 61.336700 86.787800 -59.517200 8.984550 -0.406207 -0.000000 -2.076040 -3.236940 3.580640 16.377300 -0.000001 -0.000001 11.418500 0.068330 6.029330 6.456720 -0.000001 -0.000000 3.669520 0.550019 13.240300 12.994200 -0.242716 4.980390 -91.853200 5.297580 -70.687100 5.348090 -0.000007 -0.000001 -75.282400 22.657100 3.619740 24.328600 0.000019 0.000005 11.897200 29.185600 -23.366400 22.291600 -0.000001 0.000005 -3.236740 5.019820 6.894890 12.994500 -0.242716 -4.980390 88.033100 5.280830 -69.537800 -5.348130 -0.000001 -0.000004 -72.785100 -6.548370 -12.521700 -24.328900 0.000322 -0.000009 17.099100 -20.994100 -139.349000 -22.291500 -0.000108 -0.000004 53.896600 5.658860 -15.935700 -2.192480 -6.469440 -0.000000 -169.807000 5.442420 -2.000970 39.081100 -0.000007 -0.000012 0.424489 -0.751991 29.445300 40.985400 -0.000006 -0.000013 -1.230440 6.561460 -77.805600 11.754300 -0.000000 0.000003 0.001089 0.146659 -10.629100 -2.192510 6.469440 -0.000001 -168.473000 7.017090 -174.876000 -39.081100 -0.002282 -0.040193 0.130017 -0.434738 16.247100 -40.985400 0.000008 0.000006 6.664130 2.762950 -71.653300 -11.754300 -0.000006 -0.000006 -0.008523 0.259918 -6.016490
0.000000 0.000000 0.000000 0.000000 0.000000 -0.000000 -5.451130 91.600200 -0.681723 83.257700 -1.694780 5.892980 15.735700 0.000005 -0.000001 61.879400 86.789300 -60.097000 8.984550 -0.406207 -0.000000 -2.051840 -3.178410 3.508100 16.377300 -0.000001 -0.000001 11.467300 -0.007826 6.051760 6.456720 -0.000001 -0.000000 3.655500 0.357171 13.038000 12.994200 -0.242716 4.980390 -91.872600 5.345490 -70.662000 5.348090 -0.000007 -0.000001 -75.077700 22.465800 3.619580 24.328600 0.000019 0.000005 12.007900 29.203900 -23.553900 22.291600 -0.000001 0.000005 -3.092180 5.017710 6.940570 12.994500 -0.242716 -4.980390 88.051800 5.240360 -69.572800 -5.348130 -0.000001 -0.000004 -72.823200 -6.916140 -12.430400 -24.328900 0.000322 -0.000009 17.059900 -20.907100 -139.306000 -22.291500 -0.000108 -0.000004 53.756800 5.657620 -15.792100 -2.192480 -6.469440 -0.000000 -169.882000 5.507550 -2.118490 39.081100 -0.000007 -0.000012 0.429146 -0.760172 29.447500 40.985400 -0.000006 -0.000013 -1.198730 6.592090 -77.750500 11.754300 -0.000000 0.000003 0.000987 0.148925 -10.537200 -2.192510 6.469440 -0.000001 -168.552000 7.218080 -174.958000 -39.081100 -0.002282 -0.040193 0.132918 -0.444836 16.242100 -40.985400 0.000008 0.000006 6.766380 2.813290 -71.669500 -11.754300 -0.000006 -0.000006 -0.008387 0.258832 -6.060870
0.000000 0.000000 0.000000 0.000000 0.000000 -0.000000 -5.410450 91.623600 -0.705709 83.326900 -1.515330 5.906350 15.735700 0.000005 -0.000001 62.488500 86.772500 -60.755700 8.984550 -0.406207 -0.000000 -1.992360 -3.128440 3.411200 16.377300 -0.000001 -0.000001 11.568400 -0.065348 5.917960 6.456720 -0.000001 -0.000000 3.570950 0.222199 13.067700 12.994200 -0.242716 4.980390 -91.882800 5.361150 -70.616500 5.348090 -0.000007 -0.000001 -74.870900 22.314100 3.560420 24.328600 0.000019 0.000005 12.053500 29.119600 -23.691500 22.291600 -0.000001 0.000005 -3.072100 5.019150 6.909370 12.994500 -0.242716 -4.980390 88.039500 5.268250 -69.554000 -5.348130 -0.000001 -0.000004 -72.836300 -7.341380 -12.345000 -24.328900 0.000322 -0.000009 17.248600 -20.941400 -139.019000 -22.291500 -0.000108 -0.000004 53.832400 5.655580 -15.574100 -2.192480 -6.469440 -0.000000 -169.977000 5.568150 -2.105400 39.081100 -0.000007 -0.000012 0.425313 -0.757140 29.325600 40.985400 -0.000006 -0.000013 -1.150130 6.678360 -77.682100 11.754300 -0.000000 0.000003 0.001063 0.147243 -10.605400 -2.192510 6.469440 -0.000001 -168.689000 7.410700 -174.958000 -39.081100 -0.002282 -0.040193 0.129507 -0.434241 16.202600 -40.985400 0.000008 0.000006 6.640980 2.864680 -71.671600 -11.754300 -0.000006 -0.000006 -0.008681 0.261170 -5.965330
0.000000 0.000000 0.000000 0.000000 0.000000 -0.000000 -5.341640 91.651000 -0.736141 83.430300 -1.306780 5.851140 15.735700 0.000005 -0.000001 62.705100 86.777300 -61.018900 8.984550 -0.406207 -0.000000 -1.991490 -3.098400 3.318650 16.377300 -0.000001 -0.000001 11.599900 -0.075613 5.890680 6.456720 -0.000001 -0.000000 3.545890 0.160618 12.907300 12.994200 -0.242716 4.980390 -91.901000 5.402790 -70.582500 5.348090 -0.000007 -0.000001 -74.687900 22.097100 3.478230 24.328600 0.000019 0.000005 11.938500 28.816300 -23.685000 22.291600 -0.000001 0.000005 -2.957720 5.020000 6.891190 12.994500 -0.242716 -4.980390 88.030600 5.310380 -69.618500 -5.348130 -0.000001 -0.000004 -72.763100 -7.934690 -12.179400 -24.328900 0.000322 -0.000009 17.111400 -20.595500 -138.808000 -22.291500 -0.000108 -0.000004 53.570800 5.653980 -15.407400 -2.192480 -6.469440 -0.000000 -170.112000 5.620360 -2.176100 39.081100 -0.000007 -0.000012 0.419481 -0.751257 29.178900 40.985400 -0.000006 -0.000013 -1.077640 6.796210 -77.522200 11.754300 -0.000000 0.000003 0.000946 0.149798 -10.501800 -2.192510 6.469440 -0.000001 -168.872000 7.607370 -175.066000 -39.081100 -0.002282 -0.040193 0.127417 -0.427108 16.200500 -40.985400 0.000008 0.000006 6.472290 2.935180 -71.584400 -11.754300 -0.000006 -0.000006 -0.008225 0.257529 -6.114080
0.000000 0.000000 0.000000 0.000000 0.000000 -0.000000 -5.262310 91.687600 -0.784325 83.540100 -1.025990 5.808380 15.735700 0.000005 -0.000001 62.864000 86.770800 -61.218100 8.984550 -0.406207 -0.000000 -1.973020 -3.084790 3.238740 16.377300 -0.000001 -0.000001 11.608700 -0.079456 5.764610 6.456720 -0.000001 -0.000000 3.501640 0.131555 12.803500 12.994200 -0.242716 4.980390 -91.926600 5.479610 -70.594600 5.348090 -0.000007 -0.000001 -74.486400 21.930400 3.356410 24.328600 0.000019 0.000005 11.994100 28.798300 -23.798100 22.291600 -0.000001 0.000005 -2.860650 5.019160 6.909300 12.994500 -0.242716 -4.980390 88.035100 5.298430 -69.619000 -5.348130 -0.000001 -0.000004 -72.642400 -8.365870 -11.858800 -24.328900 0.000322 -0.000009 16.624100 -19.816900 -138.629000 -22.291500 -0.000108 -0.000004 53.183400 5.650470 -15.060600 -2.192480 -6.469440 -0.000000 -170.255000 5.662840 -2.239080 39.081100 -0.000007 -0.000012 0.417459 -0.753081 29.002200 40.985400 -0.000006 -0.000013 -0.986635 6.974640 -77.394600 11.754300 -0.000000 0.000003 0.001007 0.148487 -10.555000 -2.192510 6.469440 -0.000001 -169.042000 7.755820 -175.145000 -39.081100 -0.002282 -0.040193 0.123693 -0.416051 16.135500 -40.985400 0.000008 0.000006 6.309820 2.854390 -71.541200 -11.754300 -0.000006 -0.000006 -0.008565 0.260254 -6.002760
